<svg xmlns="http://www.w3.org/2000/svg" xmlns:xlink="http://www.w3.org/1999/xlink" width="62" zoomAndPan="magnify" viewBox="0 0 46.5 45.749999" height="61" preserveAspectRatio="xMidYMid meet" version="1.0"><defs><clipPath id="72bf8535f9"><path d="M 4 20 L 25 20 L 25 42 L 4 42 Z M 4 20 " clip-rule="nonzero"/></clipPath><clipPath id="5c7a204fb2"><path d="M 0 23.429688 L 14.714844 9.832031 L 34.859375 31.628906 L 20.144531 45.226562 Z M 0 23.429688 " clip-rule="nonzero"/></clipPath><clipPath id="9856f59bd0"><path d="M 0 23.429688 L 14.714844 9.832031 L 34.859375 31.628906 L 20.144531 45.226562 Z M 0 23.429688 " clip-rule="nonzero"/></clipPath><clipPath id="5384dc8b0c"><path d="M 14 10 L 36 10 L 36 32 L 14 32 Z M 14 10 " clip-rule="nonzero"/></clipPath><clipPath id="b479d82152"><path d="M 10.558594 13.671875 L 25.269531 0.0742188 L 45.417969 21.871094 L 30.703125 35.46875 Z M 10.558594 13.671875 " clip-rule="nonzero"/></clipPath><clipPath id="ba8faf99f5"><path d="M 10.558594 13.671875 L 25.269531 0.0742188 L 45.417969 21.871094 L 30.703125 35.46875 Z M 10.558594 13.671875 " clip-rule="nonzero"/></clipPath></defs><g clip-path="url(#72bf8535f9)"><g clip-path="url(#5c7a204fb2)"><g clip-path="url(#9856f59bd0)"><path fill="#1e3a8a" d="M 24.9375 21 L 7.105469 20.207031 C 3.660156 20.050781 3.082031 26.761719 7.160156 26.871094 L 18.257812 27.171875 L 17.410156 38.339844 C 17.152344 41.738281 23.78125 42.097656 23.972656 38.640625 Z M 24.9375 21 " fill-opacity="1" fill-rule="nonzero"/></g></g></g><g clip-path="url(#5384dc8b0c)"><g clip-path="url(#b479d82152)"><g clip-path="url(#ba8faf99f5)"><path fill="#1e3a8a" d="M 35.496094 11.242188 L 17.664062 10.449219 C 14.21875 10.296875 13.636719 17.003906 17.71875 17.117188 L 28.816406 17.414062 L 27.96875 28.582031 C 27.710938 31.980469 34.339844 32.339844 34.53125 28.886719 Z M 35.496094 11.242188 " fill-opacity="1" fill-rule="nonzero"/></g></g></g></svg>