<svg xmlns="http://www.w3.org/2000/svg" xmlns:xlink="http://www.w3.org/1999/xlink" width="260" zoomAndPan="magnify" viewBox="0 0 194.87999 94.499997" height="126" preserveAspectRatio="xMidYMid meet" version="1.0"><defs><g/><clipPath id="7a5899a9d7"><path d="M 152 22 L 174 22 L 174 44 L 152 44 Z M 152 22 " clip-rule="nonzero"/></clipPath><clipPath id="dbaf4d4e5a"><path d="M 148.363281 25.871094 L 163.15625 12.199219 L 183.410156 34.113281 L 168.621094 47.789062 Z M 148.363281 25.871094 " clip-rule="nonzero"/></clipPath><clipPath id="796e09a788"><path d="M 148.363281 25.871094 L 163.15625 12.199219 L 183.410156 34.113281 L 168.621094 47.789062 Z M 148.363281 25.871094 " clip-rule="nonzero"/></clipPath><clipPath id="b32a86bd5e"><path d="M 163 12 L 185 12 L 185 34 L 163 34 Z M 163 12 " clip-rule="nonzero"/></clipPath><clipPath id="cefd99e68d"><path d="M 158.976562 16.0625 L 173.769531 2.390625 L 194.027344 24.304688 L 179.234375 37.976562 Z M 158.976562 16.0625 " clip-rule="nonzero"/></clipPath><clipPath id="31584d55a4"><path d="M 158.976562 16.0625 L 173.769531 2.390625 L 194.027344 24.304688 L 179.234375 37.976562 Z M 158.976562 16.0625 " clip-rule="nonzero"/></clipPath></defs><g clip-path="url(#7a5899a9d7)"><g clip-path="url(#dbaf4d4e5a)"><g clip-path="url(#796e09a788)"><path fill="#ff7a00" d="M 173.4375 23.425781 L 155.507812 22.628906 C 152.046875 22.476562 151.460938 29.222656 155.5625 29.332031 L 166.71875 29.636719 L 165.867188 40.863281 C 165.609375 44.28125 172.277344 44.640625 172.464844 41.167969 Z M 173.4375 23.425781 " fill-opacity="1" fill-rule="nonzero"/></g></g></g><g clip-path="url(#b32a86bd5e)"><g clip-path="url(#cefd99e68d)"><g clip-path="url(#31584d55a4)"><path fill="#ff7a00" d="M 184.050781 13.617188 L 166.121094 12.820312 C 162.660156 12.664062 162.074219 19.410156 166.179688 19.523438 L 177.335938 19.824219 L 176.484375 31.050781 C 176.222656 34.46875 182.890625 34.832031 183.082031 31.355469 Z M 184.050781 13.617188 " fill-opacity="1" fill-rule="nonzero"/></g></g></g><g fill="#ffffff" fill-opacity="1"><g transform="translate(12.754727, 61.078166)"><g><path d="M 14.671875 -5.078125 C 15.492188 -5.535156 16.234375 -5.691406 16.890625 -5.546875 C 17.546875 -5.410156 18.078125 -5.097656 18.484375 -4.609375 C 18.898438 -4.128906 19.109375 -3.570312 19.109375 -2.9375 C 19.109375 -2.46875 18.960938 -2.003906 18.671875 -1.546875 C 18.390625 -1.085938 17.945312 -0.695312 17.34375 -0.375 C 16.5625 0.0507812 15.847656 0.304688 15.203125 0.390625 C 14.566406 0.484375 13.820312 0.53125 12.96875 0.53125 C 10.65625 0.53125 8.875 0.0507812 7.625 -0.90625 C 6.382812 -1.863281 5.53125 -3.109375 5.0625 -4.640625 C 4.601562 -6.171875 4.375 -7.789062 4.375 -9.5 L 4.375 -22.09375 L 2.34375 -22.09375 C 1.351562 -22.09375 0.613281 -22.359375 0.125 -22.890625 C -0.351562 -23.429688 -0.59375 -24.003906 -0.59375 -24.609375 C -0.59375 -25.242188 -0.34375 -25.828125 0.15625 -26.359375 C 0.65625 -26.898438 1.382812 -27.171875 2.34375 -27.171875 L 4.375 -27.171875 L 4.375 -31.765625 C 4.375 -32.679688 4.675781 -33.367188 5.28125 -33.828125 C 5.882812 -34.296875 6.578125 -34.53125 7.359375 -34.53125 C 8.109375 -34.53125 8.800781 -34.296875 9.4375 -33.828125 C 10.082031 -33.367188 10.40625 -32.679688 10.40625 -31.765625 L 10.40625 -27.171875 L 14.578125 -27.171875 C 15.492188 -27.171875 16.203125 -26.898438 16.703125 -26.359375 C 17.203125 -25.828125 17.453125 -25.242188 17.453125 -24.609375 C 17.453125 -23.960938 17.203125 -23.378906 16.703125 -22.859375 C 16.203125 -22.347656 15.492188 -22.09375 14.578125 -22.09375 L 10.40625 -22.09375 L 10.40625 -9.5 C 10.40625 -8.71875 10.457031 -7.960938 10.5625 -7.234375 C 10.675781 -6.503906 10.914062 -5.898438 11.28125 -5.421875 C 11.65625 -4.941406 12.21875 -4.703125 12.96875 -4.703125 C 13.25 -4.703125 13.554688 -4.742188 13.890625 -4.828125 C 14.234375 -4.921875 14.492188 -5.003906 14.671875 -5.078125 Z M 14.671875 -5.078125 "/></g></g></g><g fill="#ffffff" fill-opacity="1"><g transform="translate(31.273113, 61.078166)"><g><path d="M 24.8125 -27.171875 C 25.738281 -27.171875 26.476562 -26.910156 27.03125 -26.390625 C 27.582031 -25.878906 27.859375 -25.210938 27.859375 -24.390625 L 27.859375 -2.78125 C 27.859375 -1.957031 27.582031 -1.285156 27.03125 -0.765625 C 26.476562 -0.253906 25.738281 0 24.8125 0 C 23.925781 0 23.234375 -0.203125 22.734375 -0.609375 C 22.234375 -1.023438 21.929688 -1.566406 21.828125 -2.234375 C 20.617188 -1.273438 19.265625 -0.570312 17.765625 -0.125 C 16.273438 0.3125 14.851562 0.53125 13.5 0.53125 C 10.9375 0.53125 8.722656 -0.0507812 6.859375 -1.21875 C 4.992188 -2.394531 3.5625 -4.050781 2.5625 -6.1875 C 1.5625 -8.320312 1.0625 -10.8125 1.0625 -13.65625 C 1.0625 -16.4375 1.613281 -18.875 2.71875 -20.96875 C 3.820312 -23.070312 5.359375 -24.71875 7.328125 -25.90625 C 9.304688 -27.101562 11.597656 -27.703125 14.203125 -27.703125 C 15.335938 -27.703125 16.597656 -27.488281 17.984375 -27.0625 C 19.367188 -26.632812 20.648438 -25.957031 21.828125 -25.03125 C 21.972656 -25.675781 22.289062 -26.191406 22.78125 -26.578125 C 23.28125 -26.972656 23.957031 -27.171875 24.8125 -27.171875 Z M 14.140625 -4.859375 C 15.710938 -4.859375 17.226562 -5.203125 18.6875 -5.890625 C 20.144531 -6.585938 21.175781 -7.613281 21.78125 -8.96875 L 21.78125 -18.203125 C 21.101562 -19.515625 20.085938 -20.523438 18.734375 -21.234375 C 17.378906 -21.953125 16.007812 -22.3125 14.625 -22.3125 C 12.382812 -22.3125 10.578125 -21.492188 9.203125 -19.859375 C 7.835938 -18.222656 7.15625 -16.140625 7.15625 -13.609375 C 7.15625 -10.972656 7.796875 -8.851562 9.078125 -7.25 C 10.359375 -5.65625 12.046875 -4.859375 14.140625 -4.859375 Z M 14.140625 -4.859375 "/></g></g></g><g fill="#ffffff" fill-opacity="1"><g transform="translate(62.119608, 61.078166)"><g><path d="M 0.6875 -6.359375 C 0.4375 -7.347656 0.664062 -8.144531 1.375 -8.75 C 2.09375 -9.351562 2.878906 -9.65625 3.734375 -9.65625 C 4.378906 -9.65625 4.945312 -9.46875 5.4375 -9.09375 C 5.9375 -8.726562 6.3125 -8.171875 6.5625 -7.421875 C 6.78125 -6.773438 7.242188 -6.25 7.953125 -5.84375 C 8.660156 -5.4375 9.484375 -5.144531 10.421875 -4.96875 C 11.367188 -4.789062 12.328125 -4.703125 13.296875 -4.703125 C 15.210938 -4.703125 16.757812 -5.046875 17.9375 -5.734375 C 19.113281 -6.429688 19.703125 -7.3125 19.703125 -8.375 C 19.703125 -9.125 19.390625 -9.675781 18.765625 -10.03125 C 18.140625 -10.382812 17.316406 -10.632812 16.296875 -10.78125 C 15.285156 -10.925781 14.210938 -11.035156 13.078125 -11.109375 C 11.578125 -11.242188 10.109375 -11.414062 8.671875 -11.625 C 7.234375 -11.84375 5.925781 -12.207031 4.75 -12.71875 C 3.570312 -13.238281 2.628906 -14.003906 1.921875 -15.015625 C 1.210938 -16.035156 0.859375 -17.414062 0.859375 -19.15625 C 0.859375 -20.863281 1.351562 -22.359375 2.34375 -23.640625 C 3.34375 -24.921875 4.75 -25.914062 6.5625 -26.625 C 8.375 -27.34375 10.472656 -27.703125 12.859375 -27.703125 C 14.242188 -27.703125 15.738281 -27.566406 17.34375 -27.296875 C 18.945312 -27.035156 20.429688 -26.492188 21.796875 -25.671875 C 23.171875 -24.859375 24.175781 -23.597656 24.8125 -21.890625 C 25.0625 -21.171875 25.046875 -20.535156 24.765625 -19.984375 C 24.484375 -19.429688 24.066406 -19.015625 23.515625 -18.734375 C 22.960938 -18.453125 22.398438 -18.3125 21.828125 -18.3125 C 21.191406 -18.3125 20.664062 -18.4375 20.25 -18.6875 C 19.84375 -18.9375 19.5 -19.363281 19.21875 -19.96875 C 18.894531 -20.707031 18.347656 -21.253906 17.578125 -21.609375 C 16.816406 -21.972656 16 -22.195312 15.125 -22.28125 C 14.257812 -22.375 13.503906 -22.421875 12.859375 -22.421875 C 11.078125 -22.421875 9.644531 -22.117188 8.5625 -21.515625 C 7.476562 -20.910156 6.9375 -20.109375 6.9375 -19.109375 C 6.9375 -18.253906 7.21875 -17.675781 7.78125 -17.375 C 8.351562 -17.070312 9.128906 -16.894531 10.109375 -16.84375 C 11.085938 -16.789062 12.179688 -16.691406 13.390625 -16.546875 C 14.890625 -16.367188 16.367188 -16.171875 17.828125 -15.953125 C 19.285156 -15.742188 20.617188 -15.378906 21.828125 -14.859375 C 23.035156 -14.347656 23.992188 -13.582031 24.703125 -12.5625 C 25.421875 -11.550781 25.78125 -10.15625 25.78125 -8.375 C 25.78125 -6.632812 25.253906 -5.085938 24.203125 -3.734375 C 23.148438 -2.378906 21.691406 -1.328125 19.828125 -0.578125 C 17.960938 0.160156 15.785156 0.53125 13.296875 0.53125 C 12.191406 0.53125 10.988281 0.445312 9.6875 0.28125 C 8.382812 0.125 7.117188 -0.191406 5.890625 -0.671875 C 4.671875 -1.148438 3.597656 -1.84375 2.671875 -2.75 C 1.742188 -3.65625 1.082031 -4.859375 0.6875 -6.359375 Z M 0.6875 -6.359375 "/></g></g></g><g fill="#ffffff" fill-opacity="1"><g transform="translate(88.643259, 61.078166)"><g><path d="M 23.90625 -4.59375 C 24.507812 -3.84375 24.75 -3.117188 24.625 -2.421875 C 24.507812 -1.734375 24.175781 -1.15625 23.625 -0.6875 C 23.070312 -0.226562 22.4375 0 21.71875 0 C 20.757812 0 19.941406 -0.390625 19.265625 -1.171875 L 10.25 -11.203125 L 8.703125 -9.828125 L 8.703125 -2.71875 C 8.703125 -1.832031 8.367188 -1.15625 7.703125 -0.6875 C 7.046875 -0.226562 6.347656 0 5.609375 0 C 4.828125 0 4.128906 -0.226562 3.515625 -0.6875 C 2.910156 -1.15625 2.609375 -1.832031 2.609375 -2.71875 L 2.609375 -31.8125 C 2.609375 -32.738281 2.910156 -33.421875 3.515625 -33.859375 C 4.128906 -34.304688 4.84375 -34.53125 5.65625 -34.53125 C 6.476562 -34.53125 7.191406 -34.304688 7.796875 -33.859375 C 8.398438 -33.421875 8.703125 -32.738281 8.703125 -31.8125 L 8.703125 -17.078125 L 18.578125 -26.3125 C 19.253906 -26.882812 20 -27.171875 20.8125 -27.171875 C 21.664062 -27.171875 22.394531 -26.894531 23 -26.34375 C 23.601562 -25.789062 23.90625 -25.160156 23.90625 -24.453125 C 23.90625 -23.773438 23.535156 -23.078125 22.796875 -22.359375 L 14.40625 -14.9375 Z M 23.90625 -4.59375 "/></g></g></g><g fill="#ffffff" fill-opacity="1"><g transform="translate(112.925434, 61.078166)"><g><path d="M 14.40625 -27.171875 C 15.375 -27.171875 16.140625 -26.960938 16.703125 -26.546875 C 17.273438 -26.140625 17.5625 -25.472656 17.5625 -24.546875 C 17.5625 -23.691406 17.273438 -23.015625 16.703125 -22.515625 C 16.140625 -22.023438 15.375 -21.78125 14.40625 -21.78125 C 12.164062 -21.78125 10.59375 -20.976562 9.6875 -19.375 C 8.78125 -17.769531 8.328125 -15.597656 8.328125 -12.859375 L 8.328125 -2.71875 C 8.328125 -1.9375 8.039062 -1.285156 7.46875 -0.765625 C 6.90625 -0.253906 6.210938 0 5.390625 0 C 4.460938 0 3.710938 -0.253906 3.140625 -0.765625 C 2.578125 -1.285156 2.296875 -1.9375 2.296875 -2.71875 L 2.296875 -24.453125 C 2.296875 -25.304688 2.625 -25.972656 3.28125 -26.453125 C 3.9375 -26.929688 4.640625 -27.171875 5.390625 -27.171875 C 6.140625 -27.171875 6.816406 -26.9375 7.421875 -26.46875 C 8.023438 -26.007812 8.328125 -25.335938 8.328125 -24.453125 L 8.328125 -24.125 C 9.109375 -25.15625 10.015625 -25.921875 11.046875 -26.421875 C 12.078125 -26.921875 13.195312 -27.171875 14.40625 -27.171875 Z M 14.40625 -27.171875 "/></g></g></g><g fill="#ffffff" fill-opacity="1"><g transform="translate(128.882125, 61.078166)"><g><path d="M 8 -31.171875 C 8 -30.285156 7.671875 -29.617188 7.015625 -29.171875 C 6.359375 -28.722656 5.65625 -28.5 4.90625 -28.5 C 4.125 -28.5 3.410156 -28.722656 2.765625 -29.171875 C 2.128906 -29.617188 1.8125 -30.285156 1.8125 -31.171875 L 1.8125 -31.859375 C 1.8125 -32.785156 2.128906 -33.460938 2.765625 -33.890625 C 3.410156 -34.316406 4.125 -34.53125 4.90625 -34.53125 C 5.65625 -34.53125 6.359375 -34.316406 7.015625 -33.890625 C 7.671875 -33.460938 8 -32.785156 8 -31.859375 Z M 1.875 -24.546875 C 1.875 -25.398438 2.203125 -26.050781 2.859375 -26.5 C 3.515625 -26.945312 4.195312 -27.171875 4.90625 -27.171875 C 5.65625 -27.171875 6.347656 -26.945312 6.984375 -26.5 C 7.628906 -26.050781 7.953125 -25.421875 7.953125 -24.609375 L 7.953125 -2.609375 C 7.953125 -1.722656 7.628906 -1.066406 6.984375 -0.640625 C 6.347656 -0.210938 5.65625 0 4.90625 0 C 4.195312 0 3.515625 -0.210938 2.859375 -0.640625 C 2.203125 -1.066406 1.875 -1.722656 1.875 -2.609375 Z M 1.875 -24.546875 "/></g></g></g><g fill="#ffffff" fill-opacity="1"><g transform="translate(137.634076, 61.078166)"><g><path d="M 24.65625 -5.078125 C 25.375 -4.285156 25.703125 -3.5 25.640625 -2.71875 C 25.585938 -1.9375 25.296875 -1.285156 24.765625 -0.765625 C 24.234375 -0.253906 23.59375 0 22.84375 0 C 22.019531 0 21.21875 -0.390625 20.4375 -1.171875 L 12.8125 -9.453125 L 5.234375 -1.28125 C 4.410156 -0.425781 3.519531 0 2.5625 0 C 1.851562 0 1.226562 -0.238281 0.6875 -0.71875 C 0.15625 -1.195312 -0.125 -1.800781 -0.15625 -2.53125 C -0.195312 -3.257812 0.140625 -4.015625 0.859375 -4.796875 L 9.078125 -13.65625 L 1.0625 -22.3125 C 0.351562 -23.09375 0.015625 -23.859375 0.046875 -24.609375 C 0.0859375 -25.359375 0.382812 -25.972656 0.9375 -26.453125 C 1.488281 -26.929688 2.132812 -27.171875 2.875 -27.171875 C 3.34375 -27.171875 3.816406 -27.0625 4.296875 -26.84375 C 4.773438 -26.632812 5.25 -26.28125 5.71875 -25.78125 L 12.921875 -18.046875 L 20.234375 -25.890625 C 20.660156 -26.347656 21.101562 -26.675781 21.5625 -26.875 C 22.019531 -27.070312 22.460938 -27.171875 22.890625 -27.171875 C 23.640625 -27.171875 24.28125 -26.9375 24.8125 -26.46875 C 25.351562 -26.007812 25.640625 -25.414062 25.671875 -24.6875 C 25.710938 -23.957031 25.359375 -23.179688 24.609375 -22.359375 L 16.59375 -13.765625 Z M 24.65625 -5.078125 "/></g></g></g><g fill="#ffffff" fill-opacity="1"><g transform="translate(16.171331, 80.489305)"><g><path d="M 12.15625 -9.3125 C 13.195312 -9.3125 14.046875 -8.976562 14.703125 -8.3125 C 15.367188 -7.644531 15.703125 -6.65625 15.703125 -5.34375 L 15.703125 0 L 14.96875 0 L 14.96875 -5.296875 C 14.96875 -6.378906 14.707031 -7.207031 14.1875 -7.78125 C 13.664062 -8.363281 12.953125 -8.65625 12.046875 -8.65625 C 11.097656 -8.65625 10.335938 -8.328125 9.765625 -7.671875 C 9.203125 -7.023438 8.921875 -6.085938 8.921875 -4.859375 L 8.921875 0 L 8.1875 0 L 8.1875 -5.296875 C 8.1875 -6.378906 7.925781 -7.207031 7.40625 -7.78125 C 6.882812 -8.363281 6.164062 -8.65625 5.25 -8.65625 C 4.3125 -8.65625 3.554688 -8.328125 2.984375 -7.671875 C 2.421875 -7.023438 2.140625 -6.085938 2.140625 -4.859375 L 2.140625 0 L 1.375 0 L 1.375 -9.125 L 2.140625 -9.125 L 2.140625 -7.140625 C 2.390625 -7.859375 2.800781 -8.398438 3.375 -8.765625 C 3.957031 -9.128906 4.625 -9.3125 5.375 -9.3125 C 6.207031 -9.3125 6.921875 -9.09375 7.515625 -8.65625 C 8.117188 -8.226562 8.53125 -7.59375 8.75 -6.75 C 8.957031 -7.59375 9.367188 -8.226562 9.984375 -8.65625 C 10.609375 -9.09375 11.332031 -9.3125 12.15625 -9.3125 Z M 12.15625 -9.3125 "/></g></g></g><g fill="#ffffff" fill-opacity="1"><g transform="translate(32.540529, 80.489305)"><g><path d="M 0.90625 -4.5625 C 0.90625 -5.507812 1.09375 -6.332031 1.46875 -7.03125 C 1.84375 -7.738281 2.363281 -8.28125 3.03125 -8.65625 C 3.695312 -9.039062 4.457031 -9.234375 5.3125 -9.234375 C 6.269531 -9.234375 7.082031 -9 7.75 -8.53125 C 8.425781 -8.0625 8.898438 -7.460938 9.171875 -6.734375 L 9.171875 -9.125 L 9.921875 -9.125 L 9.921875 0 L 9.171875 0 L 9.171875 -2.40625 C 8.898438 -1.664062 8.425781 -1.054688 7.75 -0.578125 C 7.070312 -0.0976562 6.257812 0.140625 5.3125 0.140625 C 4.457031 0.140625 3.695312 -0.0507812 3.03125 -0.4375 C 2.363281 -0.832031 1.84375 -1.382812 1.46875 -2.09375 C 1.09375 -2.800781 0.90625 -3.625 0.90625 -4.5625 Z M 9.171875 -4.5625 C 9.171875 -5.363281 9.003906 -6.066406 8.671875 -6.671875 C 8.347656 -7.285156 7.898438 -7.753906 7.328125 -8.078125 C 6.753906 -8.410156 6.113281 -8.578125 5.40625 -8.578125 C 4.664062 -8.578125 4.015625 -8.414062 3.453125 -8.09375 C 2.898438 -7.78125 2.460938 -7.320312 2.140625 -6.71875 C 1.828125 -6.113281 1.671875 -5.394531 1.671875 -4.5625 C 1.671875 -3.738281 1.828125 -3.023438 2.140625 -2.421875 C 2.460938 -1.816406 2.90625 -1.347656 3.46875 -1.015625 C 4.03125 -0.691406 4.675781 -0.53125 5.40625 -0.53125 C 6.113281 -0.53125 6.753906 -0.695312 7.328125 -1.03125 C 7.910156 -1.363281 8.363281 -1.832031 8.6875 -2.4375 C 9.007812 -3.050781 9.171875 -3.757812 9.171875 -4.5625 Z M 9.171875 -4.5625 "/></g></g></g><g fill="#ffffff" fill-opacity="1"><g transform="translate(43.201441, 80.489305)"><g><path d="M 5.5 -9.3125 C 6.582031 -9.3125 7.460938 -8.976562 8.140625 -8.3125 C 8.828125 -7.644531 9.171875 -6.65625 9.171875 -5.34375 L 9.171875 0 L 8.4375 0 L 8.4375 -5.296875 C 8.4375 -6.378906 8.160156 -7.207031 7.609375 -7.78125 C 7.054688 -8.363281 6.3125 -8.65625 5.375 -8.65625 C 4.382812 -8.65625 3.597656 -8.335938 3.015625 -7.703125 C 2.429688 -7.078125 2.140625 -6.148438 2.140625 -4.921875 L 2.140625 0 L 1.375 0 L 1.375 -9.125 L 2.140625 -9.125 L 2.140625 -7.1875 C 2.390625 -7.875 2.8125 -8.398438 3.40625 -8.765625 C 4.007812 -9.128906 4.707031 -9.3125 5.5 -9.3125 Z M 5.5 -9.3125 "/></g></g></g><g fill="#ffffff" fill-opacity="1"><g transform="translate(53.022899, 80.489305)"><g><path d="M 0.90625 -4.5625 C 0.90625 -5.507812 1.09375 -6.332031 1.46875 -7.03125 C 1.84375 -7.738281 2.363281 -8.28125 3.03125 -8.65625 C 3.695312 -9.039062 4.457031 -9.234375 5.3125 -9.234375 C 6.269531 -9.234375 7.082031 -9 7.75 -8.53125 C 8.425781 -8.0625 8.898438 -7.460938 9.171875 -6.734375 L 9.171875 -9.125 L 9.921875 -9.125 L 9.921875 0 L 9.171875 0 L 9.171875 -2.40625 C 8.898438 -1.664062 8.425781 -1.054688 7.75 -0.578125 C 7.070312 -0.0976562 6.257812 0.140625 5.3125 0.140625 C 4.457031 0.140625 3.695312 -0.0507812 3.03125 -0.4375 C 2.363281 -0.832031 1.84375 -1.382812 1.46875 -2.09375 C 1.09375 -2.800781 0.90625 -3.625 0.90625 -4.5625 Z M 9.171875 -4.5625 C 9.171875 -5.363281 9.003906 -6.066406 8.671875 -6.671875 C 8.347656 -7.285156 7.898438 -7.753906 7.328125 -8.078125 C 6.753906 -8.410156 6.113281 -8.578125 5.40625 -8.578125 C 4.664062 -8.578125 4.015625 -8.414062 3.453125 -8.09375 C 2.898438 -7.78125 2.460938 -7.320312 2.140625 -6.71875 C 1.828125 -6.113281 1.671875 -5.394531 1.671875 -4.5625 C 1.671875 -3.738281 1.828125 -3.023438 2.140625 -2.421875 C 2.460938 -1.816406 2.90625 -1.347656 3.46875 -1.015625 C 4.03125 -0.691406 4.675781 -0.53125 5.40625 -0.53125 C 6.113281 -0.53125 6.753906 -0.695312 7.328125 -1.03125 C 7.910156 -1.363281 8.363281 -1.832031 8.6875 -2.4375 C 9.007812 -3.050781 9.171875 -3.757812 9.171875 -4.5625 Z M 9.171875 -4.5625 "/></g></g></g><g fill="#ffffff" fill-opacity="1"><g transform="translate(63.68381, 80.489305)"><g><path d="M 5.3125 -9.234375 C 6.269531 -9.234375 7.082031 -9 7.75 -8.53125 C 8.425781 -8.070312 8.898438 -7.476562 9.171875 -6.75 L 9.171875 -9.125 L 9.921875 -9.125 L 9.921875 0.28125 C 9.921875 1.125 9.734375 1.859375 9.359375 2.484375 C 8.992188 3.117188 8.5 3.609375 7.875 3.953125 C 7.25 4.296875 6.550781 4.46875 5.78125 4.46875 C 4.632812 4.46875 3.6875 4.191406 2.9375 3.640625 C 2.1875 3.097656 1.695312 2.359375 1.46875 1.421875 L 2.21875 1.421875 C 2.4375 2.148438 2.851562 2.726562 3.46875 3.15625 C 4.09375 3.59375 4.863281 3.8125 5.78125 3.8125 C 6.414062 3.8125 6.988281 3.664062 7.5 3.375 C 8.019531 3.09375 8.425781 2.6875 8.71875 2.15625 C 9.019531 1.625 9.171875 1 9.171875 0.28125 L 9.171875 -2.390625 C 8.898438 -1.660156 8.425781 -1.054688 7.75 -0.578125 C 7.070312 -0.0976562 6.257812 0.140625 5.3125 0.140625 C 4.457031 0.140625 3.695312 -0.0507812 3.03125 -0.4375 C 2.363281 -0.832031 1.84375 -1.382812 1.46875 -2.09375 C 1.09375 -2.800781 0.90625 -3.625 0.90625 -4.5625 C 0.90625 -5.507812 1.09375 -6.332031 1.46875 -7.03125 C 1.84375 -7.738281 2.363281 -8.28125 3.03125 -8.65625 C 3.695312 -9.039062 4.457031 -9.234375 5.3125 -9.234375 Z M 9.171875 -4.5625 C 9.171875 -5.363281 9.003906 -6.066406 8.671875 -6.671875 C 8.347656 -7.285156 7.898438 -7.753906 7.328125 -8.078125 C 6.753906 -8.410156 6.113281 -8.578125 5.40625 -8.578125 C 4.664062 -8.578125 4.015625 -8.414062 3.453125 -8.09375 C 2.898438 -7.78125 2.460938 -7.320312 2.140625 -6.71875 C 1.828125 -6.113281 1.671875 -5.394531 1.671875 -4.5625 C 1.671875 -3.738281 1.828125 -3.023438 2.140625 -2.421875 C 2.460938 -1.816406 2.90625 -1.347656 3.46875 -1.015625 C 4.03125 -0.691406 4.675781 -0.53125 5.40625 -0.53125 C 6.113281 -0.53125 6.753906 -0.695312 7.328125 -1.03125 C 7.910156 -1.363281 8.363281 -1.832031 8.6875 -2.4375 C 9.007812 -3.050781 9.171875 -3.757812 9.171875 -4.5625 Z M 9.171875 -4.5625 "/></g></g></g><g fill="#ffffff" fill-opacity="1"><g transform="translate(74.344721, 80.489305)"><g><path d="M 9.59375 -5.171875 C 9.59375 -4.765625 9.582031 -4.460938 9.5625 -4.265625 L 1.671875 -4.265625 C 1.703125 -3.453125 1.882812 -2.765625 2.21875 -2.203125 C 2.550781 -1.640625 2.988281 -1.21875 3.53125 -0.9375 C 4.082031 -0.65625 4.6875 -0.515625 5.34375 -0.515625 C 6.238281 -0.515625 6.988281 -0.734375 7.59375 -1.171875 C 8.195312 -1.617188 8.578125 -2.222656 8.734375 -2.984375 L 9.53125 -2.984375 C 9.34375 -2.054688 8.878906 -1.300781 8.140625 -0.71875 C 7.398438 -0.144531 6.46875 0.140625 5.34375 0.140625 C 4.488281 0.140625 3.722656 -0.046875 3.046875 -0.421875 C 2.378906 -0.804688 1.851562 -1.351562 1.46875 -2.0625 C 1.09375 -2.78125 0.90625 -3.613281 0.90625 -4.5625 C 0.90625 -5.519531 1.09375 -6.347656 1.46875 -7.046875 C 1.84375 -7.753906 2.363281 -8.296875 3.03125 -8.671875 C 3.707031 -9.046875 4.476562 -9.234375 5.34375 -9.234375 C 6.21875 -9.234375 6.972656 -9.046875 7.609375 -8.671875 C 8.253906 -8.296875 8.742188 -7.796875 9.078125 -7.171875 C 9.421875 -6.554688 9.59375 -5.890625 9.59375 -5.171875 Z M 8.828125 -4.890625 C 8.867188 -5.691406 8.726562 -6.375 8.40625 -6.9375 C 8.082031 -7.5 7.644531 -7.914062 7.09375 -8.1875 C 6.550781 -8.457031 5.960938 -8.59375 5.328125 -8.59375 C 4.679688 -8.59375 4.085938 -8.457031 3.546875 -8.1875 C 3.003906 -7.914062 2.5625 -7.5 2.21875 -6.9375 C 1.882812 -6.375 1.703125 -5.691406 1.671875 -4.890625 Z M 8.828125 -4.890625 "/></g></g></g><g fill="#ffffff" fill-opacity="1"><g transform="translate(84.199751, 80.489305)"><g/></g></g><g fill="#ffffff" fill-opacity="1"><g transform="translate(88.29612, 80.489305)"><g><path d="M 13.296875 -9.125 L 10.4375 0 L 9.703125 0 L 6.796875 -8.078125 L 3.875 0 L 3.15625 0 L 0.28125 -9.125 L 1.078125 -9.125 L 3.53125 -0.859375 L 6.453125 -9.125 L 7.171875 -9.125 L 10.078125 -0.890625 L 12.53125 -9.125 Z M 13.296875 -9.125 "/></g></g></g><g fill="#ffffff" fill-opacity="1"><g transform="translate(101.240339, 80.489305)"><g><path d="M 1.765625 -11.15625 C 1.585938 -11.15625 1.4375 -11.210938 1.3125 -11.328125 C 1.1875 -11.441406 1.125 -11.601562 1.125 -11.8125 C 1.125 -12 1.1875 -12.15625 1.3125 -12.28125 C 1.4375 -12.40625 1.585938 -12.46875 1.765625 -12.46875 C 1.941406 -12.46875 2.09375 -12.40625 2.21875 -12.28125 C 2.34375 -12.15625 2.40625 -12 2.40625 -11.8125 C 2.40625 -11.601562 2.34375 -11.441406 2.21875 -11.328125 C 2.09375 -11.210938 1.941406 -11.15625 1.765625 -11.15625 Z M 2.140625 -9.125 L 2.140625 0 L 1.375 0 L 1.375 -9.125 Z M 2.140625 -9.125 "/></g></g></g><g fill="#ffffff" fill-opacity="1"><g transform="translate(104.127888, 80.489305)"><g><path d="M 2.5 -8.46875 L 2.5 -2.4375 C 2.5 -1.757812 2.617188 -1.296875 2.859375 -1.046875 C 3.109375 -0.796875 3.550781 -0.671875 4.1875 -0.671875 L 5.203125 -0.671875 L 5.203125 0 L 4.0625 0 C 3.269531 0 2.6875 -0.1875 2.3125 -0.5625 C 1.9375 -0.9375 1.75 -1.5625 1.75 -2.4375 L 1.75 -8.46875 L 0.375 -8.46875 L 0.375 -9.125 L 1.75 -9.125 L 1.75 -11.4375 L 2.5 -11.4375 L 2.5 -9.125 L 5.203125 -9.125 L 5.203125 -8.46875 Z M 2.5 -8.46875 "/></g></g></g><g fill="#ffffff" fill-opacity="1"><g transform="translate(109.315547, 80.489305)"><g><path d="M 5.515625 -9.3125 C 6.585938 -9.3125 7.460938 -8.976562 8.140625 -8.3125 C 8.828125 -7.644531 9.171875 -6.65625 9.171875 -5.34375 L 9.171875 0 L 8.4375 0 L 8.4375 -5.296875 C 8.4375 -6.378906 8.160156 -7.207031 7.609375 -7.78125 C 7.054688 -8.363281 6.3125 -8.65625 5.375 -8.65625 C 4.382812 -8.65625 3.597656 -8.335938 3.015625 -7.703125 C 2.429688 -7.078125 2.140625 -6.148438 2.140625 -4.921875 L 2.140625 0 L 1.375 0 L 1.375 -12.421875 L 2.140625 -12.421875 L 2.140625 -7.1875 C 2.390625 -7.875 2.816406 -8.398438 3.421875 -8.765625 C 4.023438 -9.128906 4.722656 -9.3125 5.515625 -9.3125 Z M 5.515625 -9.3125 "/></g></g></g><g fill="#ffffff" fill-opacity="1"><g transform="translate(119.137001, 80.489305)"><g/></g></g><g fill="#ffffff" fill-opacity="1"><g transform="translate(123.23337, 80.489305)"><g><path d="M 9.59375 -5.171875 C 9.59375 -4.765625 9.582031 -4.460938 9.5625 -4.265625 L 1.671875 -4.265625 C 1.703125 -3.453125 1.882812 -2.765625 2.21875 -2.203125 C 2.550781 -1.640625 2.988281 -1.21875 3.53125 -0.9375 C 4.082031 -0.65625 4.6875 -0.515625 5.34375 -0.515625 C 6.238281 -0.515625 6.988281 -0.734375 7.59375 -1.171875 C 8.195312 -1.617188 8.578125 -2.222656 8.734375 -2.984375 L 9.53125 -2.984375 C 9.34375 -2.054688 8.878906 -1.300781 8.140625 -0.71875 C 7.398438 -0.144531 6.46875 0.140625 5.34375 0.140625 C 4.488281 0.140625 3.722656 -0.046875 3.046875 -0.421875 C 2.378906 -0.804688 1.851562 -1.351562 1.46875 -2.0625 C 1.09375 -2.78125 0.90625 -3.613281 0.90625 -4.5625 C 0.90625 -5.519531 1.09375 -6.347656 1.46875 -7.046875 C 1.84375 -7.753906 2.363281 -8.296875 3.03125 -8.671875 C 3.707031 -9.046875 4.476562 -9.234375 5.34375 -9.234375 C 6.21875 -9.234375 6.972656 -9.046875 7.609375 -8.671875 C 8.253906 -8.296875 8.742188 -7.796875 9.078125 -7.171875 C 9.421875 -6.554688 9.59375 -5.890625 9.59375 -5.171875 Z M 8.828125 -4.890625 C 8.867188 -5.691406 8.726562 -6.375 8.40625 -6.9375 C 8.082031 -7.5 7.644531 -7.914062 7.09375 -8.1875 C 6.550781 -8.457031 5.960938 -8.59375 5.328125 -8.59375 C 4.679688 -8.59375 4.085938 -8.457031 3.546875 -8.1875 C 3.003906 -7.914062 2.5625 -7.5 2.21875 -6.9375 C 1.882812 -6.375 1.703125 -5.691406 1.671875 -4.890625 Z M 8.828125 -4.890625 "/></g></g></g><g fill="#ffffff" fill-opacity="1"><g transform="translate(133.088407, 80.489305)"><g><path d="M 0.90625 -4.5625 C 0.90625 -5.507812 1.09375 -6.332031 1.46875 -7.03125 C 1.84375 -7.738281 2.363281 -8.28125 3.03125 -8.65625 C 3.695312 -9.039062 4.457031 -9.234375 5.3125 -9.234375 C 6.269531 -9.234375 7.082031 -9 7.75 -8.53125 C 8.425781 -8.0625 8.898438 -7.460938 9.171875 -6.734375 L 9.171875 -9.125 L 9.921875 -9.125 L 9.921875 0 L 9.171875 0 L 9.171875 -2.40625 C 8.898438 -1.664062 8.425781 -1.054688 7.75 -0.578125 C 7.070312 -0.0976562 6.257812 0.140625 5.3125 0.140625 C 4.457031 0.140625 3.695312 -0.0507812 3.03125 -0.4375 C 2.363281 -0.832031 1.84375 -1.382812 1.46875 -2.09375 C 1.09375 -2.800781 0.90625 -3.625 0.90625 -4.5625 Z M 9.171875 -4.5625 C 9.171875 -5.363281 9.003906 -6.066406 8.671875 -6.671875 C 8.347656 -7.285156 7.898438 -7.753906 7.328125 -8.078125 C 6.753906 -8.410156 6.113281 -8.578125 5.40625 -8.578125 C 4.664062 -8.578125 4.015625 -8.414062 3.453125 -8.09375 C 2.898438 -7.78125 2.460938 -7.320312 2.140625 -6.71875 C 1.828125 -6.113281 1.671875 -5.394531 1.671875 -4.5625 C 1.671875 -3.738281 1.828125 -3.023438 2.140625 -2.421875 C 2.460938 -1.816406 2.90625 -1.347656 3.46875 -1.015625 C 4.03125 -0.691406 4.675781 -0.53125 5.40625 -0.53125 C 6.113281 -0.53125 6.753906 -0.695312 7.328125 -1.03125 C 7.910156 -1.363281 8.363281 -1.832031 8.6875 -2.4375 C 9.007812 -3.050781 9.171875 -3.757812 9.171875 -4.5625 Z M 9.171875 -4.5625 "/></g></g></g><g fill="#ffffff" fill-opacity="1"><g transform="translate(143.749318, 80.489305)"><g><path d="M 4.421875 0.140625 C 3.398438 0.140625 2.566406 -0.0820312 1.921875 -0.53125 C 1.273438 -0.976562 0.914062 -1.617188 0.84375 -2.453125 L 1.609375 -2.453125 C 1.671875 -1.859375 1.941406 -1.382812 2.421875 -1.03125 C 2.910156 -0.6875 3.578125 -0.515625 4.421875 -0.515625 C 5.109375 -0.515625 5.65625 -0.691406 6.0625 -1.046875 C 6.476562 -1.398438 6.6875 -1.832031 6.6875 -2.34375 C 6.6875 -2.707031 6.578125 -3.003906 6.359375 -3.234375 C 6.140625 -3.460938 5.867188 -3.640625 5.546875 -3.765625 C 5.222656 -3.890625 4.78125 -4.023438 4.21875 -4.171875 C 3.539062 -4.347656 2.992188 -4.519531 2.578125 -4.6875 C 2.171875 -4.863281 1.820312 -5.125 1.53125 -5.46875 C 1.238281 -5.820312 1.09375 -6.289062 1.09375 -6.875 C 1.09375 -7.300781 1.21875 -7.691406 1.46875 -8.046875 C 1.726562 -8.410156 2.085938 -8.695312 2.546875 -8.90625 C 3.003906 -9.125 3.523438 -9.234375 4.109375 -9.234375 C 5.066406 -9.234375 5.835938 -8.992188 6.421875 -8.515625 C 7.015625 -8.046875 7.332031 -7.390625 7.375 -6.546875 L 6.625 -6.546875 C 6.582031 -7.148438 6.34375 -7.640625 5.90625 -8.015625 C 5.46875 -8.398438 4.863281 -8.59375 4.09375 -8.59375 C 3.445312 -8.59375 2.910156 -8.425781 2.484375 -8.09375 C 2.054688 -7.757812 1.84375 -7.351562 1.84375 -6.875 C 1.84375 -6.445312 1.960938 -6.097656 2.203125 -5.828125 C 2.441406 -5.566406 2.738281 -5.363281 3.09375 -5.21875 C 3.445312 -5.082031 3.914062 -4.9375 4.5 -4.78125 C 5.132812 -4.613281 5.644531 -4.445312 6.03125 -4.28125 C 6.425781 -4.125 6.753906 -3.890625 7.015625 -3.578125 C 7.285156 -3.273438 7.421875 -2.863281 7.421875 -2.34375 C 7.421875 -1.875 7.289062 -1.445312 7.03125 -1.0625 C 6.78125 -0.6875 6.425781 -0.390625 5.96875 -0.171875 C 5.507812 0.0351562 4.992188 0.140625 4.421875 0.140625 Z M 4.421875 0.140625 "/></g></g></g><g fill="#ffffff" fill-opacity="1"><g transform="translate(151.455345, 80.489305)"><g><path d="M 9.59375 -5.171875 C 9.59375 -4.765625 9.582031 -4.460938 9.5625 -4.265625 L 1.671875 -4.265625 C 1.703125 -3.453125 1.882812 -2.765625 2.21875 -2.203125 C 2.550781 -1.640625 2.988281 -1.21875 3.53125 -0.9375 C 4.082031 -0.65625 4.6875 -0.515625 5.34375 -0.515625 C 6.238281 -0.515625 6.988281 -0.734375 7.59375 -1.171875 C 8.195312 -1.617188 8.578125 -2.222656 8.734375 -2.984375 L 9.53125 -2.984375 C 9.34375 -2.054688 8.878906 -1.300781 8.140625 -0.71875 C 7.398438 -0.144531 6.46875 0.140625 5.34375 0.140625 C 4.488281 0.140625 3.722656 -0.046875 3.046875 -0.421875 C 2.378906 -0.804688 1.851562 -1.351562 1.46875 -2.0625 C 1.09375 -2.78125 0.90625 -3.613281 0.90625 -4.5625 C 0.90625 -5.519531 1.09375 -6.347656 1.46875 -7.046875 C 1.84375 -7.753906 2.363281 -8.296875 3.03125 -8.671875 C 3.707031 -9.046875 4.476562 -9.234375 5.34375 -9.234375 C 6.21875 -9.234375 6.972656 -9.046875 7.609375 -8.671875 C 8.253906 -8.296875 8.742188 -7.796875 9.078125 -7.171875 C 9.421875 -6.554688 9.59375 -5.890625 9.59375 -5.171875 Z M 8.828125 -4.890625 C 8.867188 -5.691406 8.726562 -6.375 8.40625 -6.9375 C 8.082031 -7.5 7.644531 -7.914062 7.09375 -8.1875 C 6.550781 -8.457031 5.960938 -8.59375 5.328125 -8.59375 C 4.679688 -8.59375 4.085938 -8.457031 3.546875 -8.1875 C 3.003906 -7.914062 2.5625 -7.5 2.21875 -6.9375 C 1.882812 -6.375 1.703125 -5.691406 1.671875 -4.890625 Z M 8.828125 -4.890625 "/></g></g></g></svg>